<svg width="784" height="234" viewBox="0 0 784 234" fill="none" xmlns="http://www.w3.org/2000/svg">
<path d="M1 13.9951C1 13.9951 40.0937 -7.09079 101.115 6.80052C162.136 20.6918 257.991 129.024 364.622 190.194C432.909 229.368 493.641 221.218 533.13 196.401M533.13 196.401C555.303 182.465 570.778 163.275 577.131 144.256C594.799 91.3665 553.951 81.6036 532.775 85.279C507.663 89.6376 497.315 107.207 501.575 141.088C503.937 159.866 515.535 179.915 533.13 196.401ZM533.13 196.401C547.28 209.659 565.307 220.613 585.526 226.75C662.586 250.141 783 188.732 783 188.732" stroke="#FFDBEB" stroke-width="3"/>
</svg>
