<?xml version="1.0" encoding="UTF-8"?>
<svg width="203px" height="206px" viewBox="0 0 203 206" version="1.1" xmlns="http://www.w3.org/2000/svg" xmlns:xlink="http://www.w3.org/1999/xlink">
    <title>59F4DB83-5614-4802-BC76-FFA09EAD0C81</title>
    <g id="Final-try-1" stroke="none" stroke-width="1" fill="none" fill-rule="evenodd">
        <g id="Homepage---1680" transform="translate(-270.000000, -1514.000000)" fill="#DFDFFF" fill-rule="nonzero">
            <g id="Group-44-Copy" transform="translate(120.000000, 1401.000000)">
                <g id="Group" transform="translate(150.000000, 113.000000)">
                    <path d="M6.25021027,3.12317571 C6.25021027,4.84183126 4.84482123,6.24631546 3.12504519,6.24631546 C1.40538904,6.24631546 0,4.84183126 0,3.12317571 C0,1.40450577 1.40538904,0 3.12504519,0 C4.84482123,0 6.25021027,1.40450577 6.25021027,3.12317571 Z" id="Path"></path>
                    <path d="M34.3575115,3.12317571 C34.3575115,4.84183126 32.9521225,6.24631546 31.2324663,6.24631546 C29.5126903,6.24631546 28.1074211,4.84183126 28.1074211,3.12317571 C28.1074211,1.40450577 29.5126903,0 31.2324663,0 C32.9521225,0 34.3575115,1.40450577 34.3575115,3.12317571 Z" id="Path"></path>
                    <path d="M62.4645729,3.12317571 C62.4645729,4.84183126 61.0591839,6.24631546 59.3395278,6.24631546 C57.6198716,6.24631546 56.2144826,4.84183126 56.2144826,3.12317571 C56.2144826,1.40450577 57.6198716,0 59.3395278,0 C61.0591839,0 62.4645729,1.40450577 62.4645729,3.12317571 Z" id="Path"></path>
                    <path d="M90.5716344,3.12317571 C90.5716344,4.84183126 89.1662453,6.24631546 87.4465892,6.24631546 C85.7268131,6.24631546 84.321544,4.84183126 84.321544,3.12317571 C84.321544,1.40450577 85.7268131,0 87.4465892,0 C89.1662453,0 90.5716344,1.40450577 90.5716344,3.12317571 Z" id="Path"></path>
                    <path d="M118.679056,3.12317571 C118.679056,4.84183126 117.273786,6.24631546 115.553171,6.24631546 C113.833755,6.24631546 112.428486,4.84183126 112.428486,3.12317571 C112.428486,1.40450577 113.833755,0 115.553171,0 C117.273786,0 118.679056,1.40450577 118.679056,3.12317571 Z" id="Path"></path>
                    <path d="M146.785637,3.12317571 C146.785637,4.84183126 145.380368,6.24631546 143.660952,6.24631546 C141.941536,6.24631546 140.535067,4.84183126 140.535067,3.12317571 C140.535067,1.40450577 141.941536,0 143.660952,0 C145.380368,0 146.785637,1.40450577 146.785637,3.12317571 Z" id="Path"></path>
                    <path d="M174.893418,3.12317571 C174.893418,4.84183126 173.488149,6.24631546 171.767534,6.24631546 C170.048117,6.24631546 168.642848,4.84183126 168.642848,3.12317571 C168.642848,1.40450577 170.048117,0 171.767534,0 C173.488149,0 174.893418,1.40450577 174.893418,3.12317571 Z" id="Path"></path>
                    <path d="M203,3.12317571 C203,4.84183126 201.594731,6.24631546 199.875315,6.24631546 C198.155898,6.24631546 196.750629,4.84183126 196.750629,3.12317571 C196.750629,1.40450577 198.155898,0 199.875315,0 C201.594731,0 203,1.40450577 203,3.12317571 Z" id="Path"></path>
                    <path d="M6.25021027,28.0900795 C6.25021027,29.8086872 4.84482123,31.2132193 3.12504519,31.2132193 C1.40538904,31.2132193 0,29.8086872 0,28.0900795 C0,26.3714719 1.40538904,24.9669398 3.12504519,24.9669398 C4.84482123,24.9669398 6.25021027,26.3714719 6.25021027,28.0900795 Z" id="Path"></path>
                    <path d="M34.3575115,28.0900795 C34.3575115,29.8086872 32.9521225,31.2132193 31.2324663,31.2132193 C29.5126903,31.2132193 28.1074211,29.8086872 28.1074211,28.0900795 C28.1074211,26.3714719 29.5126903,24.9669398 31.2324663,24.9669398 C32.9521225,24.9669398 34.3575115,26.3714719 34.3575115,28.0900795 Z" id="Path"></path>
                    <path d="M62.4645729,28.0900795 C62.4645729,29.8086872 61.0591839,31.2132193 59.3395278,31.2132193 C57.6198716,31.2132193 56.2144826,29.8086872 56.2144826,28.0900795 C56.2144826,26.3714719 57.6198716,24.9669398 59.3395278,24.9669398 C61.0591839,24.9669398 62.4645729,26.3714719 62.4645729,28.0900795 Z" id="Path"></path>
                    <path d="M90.5716344,28.0900795 C90.5716344,29.8086872 89.1662453,31.2132193 87.4465892,31.2132193 C85.7268131,31.2132193 84.321544,29.8086872 84.321544,28.0900795 C84.321544,26.3714719 85.7268131,24.9669398 87.4465892,24.9669398 C89.1662453,24.9669398 90.5716344,26.3714719 90.5716344,28.0900795 Z" id="Path"></path>
                    <path d="M118.679056,28.0900795 C118.679056,29.8086872 117.273786,31.2132193 115.553171,31.2132193 C113.833755,31.2132193 112.428486,29.8086872 112.428486,28.0900795 C112.428486,26.3714719 113.833755,24.9669398 115.553171,24.9669398 C117.273786,24.9669398 118.679056,26.3714719 118.679056,28.0900795 Z" id="Path"></path>
                    <path d="M146.785637,28.0900795 C146.785637,29.8086872 145.380368,31.2132193 143.660952,31.2132193 C141.941536,31.2132193 140.535067,29.8086872 140.535067,28.0900795 C140.535067,26.3714719 141.941536,24.9669398 143.660952,24.9669398 C145.380368,24.9669398 146.785637,26.3714719 146.785637,28.0900795 Z" id="Path"></path>
                    <path d="M174.893418,28.0900795 C174.893418,29.8086872 173.488149,31.2132193 171.767534,31.2132193 C170.048117,31.2132193 168.642848,29.8086872 168.642848,28.0900795 C168.642848,26.3714719 170.048117,24.9669398 171.767534,24.9669398 C173.488149,24.9669398 174.893418,26.3714719 174.893418,28.0900795 Z" id="Path"></path>
                    <path d="M203,28.0900795 C203,29.8086872 201.594731,31.2132193 199.875315,31.2132193 C198.155898,31.2132193 196.750629,29.8086872 196.750629,28.0900795 C196.750629,26.3714719 198.155898,24.9669398 199.875315,24.9669398 C201.594731,24.9669398 203,26.3714719 203,28.0900795 Z" id="Path"></path>
                    <path d="M6.25021027,53.0569834 C6.25021027,54.7757108 4.84482123,56.1801231 3.12504519,56.1801231 C1.40538904,56.1801231 0,54.7757108 0,53.0569834 C0,51.3383758 1.40538904,49.9338436 3.12504519,49.9338436 C4.84482123,49.9338436 6.25021027,51.3383758 6.25021027,53.0569834 Z" id="Path"></path>
                    <path d="M34.3575115,53.0569834 C34.3575115,54.7757108 32.9521225,56.1801231 31.2324663,56.1801231 C29.5126903,56.1801231 28.1074211,54.7757108 28.1074211,53.0569834 C28.1074211,51.3383758 29.5126903,49.9338436 31.2324663,49.9338436 C32.9521225,49.9338436 34.3575115,51.3383758 34.3575115,53.0569834 Z" id="Path"></path>
                    <path d="M62.4645729,53.0569834 C62.4645729,54.7757108 61.0591839,56.1801231 59.3395278,56.1801231 C57.6198716,56.1801231 56.2144826,54.7757108 56.2144826,53.0569834 C56.2144826,51.3383758 57.6198716,49.9338436 59.3395278,49.9338436 C61.0591839,49.9338436 62.4645729,51.3383758 62.4645729,53.0569834 Z" id="Path"></path>
                    <path d="M90.5716344,53.0569834 C90.5716344,54.7757108 89.1662453,56.1801231 87.4465892,56.1801231 C85.7268131,56.1801231 84.321544,54.7757108 84.321544,53.0569834 C84.321544,51.3383758 85.7268131,49.9338436 87.4465892,49.9338436 C89.1662453,49.9338436 90.5716344,51.3383758 90.5716344,53.0569834 Z" id="Path"></path>
                    <path d="M118.679056,53.0569834 C118.679056,54.7757108 117.273786,56.1801231 115.553171,56.1801231 C113.833755,56.1801231 112.428486,54.7757108 112.428486,53.0569834 C112.428486,51.3383758 113.833755,49.9338436 115.553171,49.9338436 C117.273786,49.9338436 118.679056,51.3383758 118.679056,53.0569834 Z" id="Path"></path>
                    <path d="M146.785637,53.0569834 C146.785637,54.7757108 145.380368,56.1801231 143.660952,56.1801231 C141.941536,56.1801231 140.535067,54.7757108 140.535067,53.0569834 C140.535067,51.3383758 141.941536,49.9338436 143.660952,49.9338436 C145.380368,49.9338436 146.785637,51.3383758 146.785637,53.0569834 Z" id="Path"></path>
                    <path d="M174.893418,53.0569834 C174.893418,54.7757108 173.488149,56.1801231 171.767534,56.1801231 C170.048117,56.1801231 168.642848,54.7757108 168.642848,53.0569834 C168.642848,51.3383758 170.048117,49.9338436 171.767534,49.9338436 C173.488149,49.9338436 174.893418,51.3383758 174.893418,53.0569834 Z" id="Path"></path>
                    <path d="M203,53.0569834 C203,54.7757108 201.594731,56.1801231 199.875315,56.1801231 C198.155898,56.1801231 196.750629,54.7757108 196.750629,53.0569834 C196.750629,51.3383758 198.155898,49.9338436 199.875315,49.9338436 C201.594731,49.9338436 203,51.3383758 203,53.0569834 Z" id="Path"></path>
                    <path d="M6.25021027,78.0236475 C6.25021027,79.7422552 4.84482123,81.1467873 3.12504519,81.1467873 C1.40538904,81.1467873 0,79.7422552 0,78.0236475 C0,76.3049201 1.40538904,74.900388 3.12504519,74.900388 C4.84482123,74.9189617 6.25021027,76.3049201 6.25021027,78.0236475 Z" id="Path"></path>
                    <path d="M34.3575115,78.0236475 C34.3575115,79.7422552 32.9521225,81.1467873 31.2324663,81.1467873 C29.5126903,81.1467873 28.1074211,79.7422552 28.1074211,78.0236475 C28.1074211,76.3049201 29.5126903,74.900388 31.2324663,74.900388 C32.9521225,74.9189617 34.3575115,76.3049201 34.3575115,78.0236475 Z" id="Path"></path>
                    <path d="M59.3395278,81.1467873 C61.0654189,81.1467873 62.4645729,79.7484863 62.4645729,78.0236475 C62.4645729,76.2986889 61.0654189,74.900388 59.3395278,74.900388 C57.6136366,74.900388 56.2144826,76.2986889 56.2144826,78.0236475 C56.2144826,79.7484863 57.6136366,81.1467873 59.3395278,81.1467873 Z" id="Path"></path>
                    <path d="M87.4465892,81.1467873 C89.1724803,81.1467873 90.5716344,79.7484863 90.5716344,78.0236475 C90.5716344,76.2986889 89.1724803,74.900388 87.4465892,74.900388 C85.7206981,74.900388 84.321544,76.2986889 84.321544,78.0236475 C84.321544,79.7484863 85.7206981,81.1467873 87.4465892,81.1467873 Z" id="Path"></path>
                    <path d="M115.553171,81.1467873 C117.279782,81.1467873 118.679056,79.7484863 118.679056,78.0236475 C118.679056,76.2986889 117.279782,74.900388 115.553171,74.900388 C113.827759,74.900388 112.428486,76.2986889 112.428486,78.0236475 C112.428486,79.7484863 113.827759,81.1467873 115.553171,81.1467873 Z" id="Path"></path>
                    <path d="M143.660952,81.1467873 C145.386363,81.1467873 146.785637,79.7484863 146.785637,78.0236475 C146.785637,76.2986889 145.386363,74.900388 143.660952,74.900388 C141.934341,74.900388 140.535067,76.2986889 140.535067,78.0236475 C140.535067,79.7484863 141.934341,81.1467873 143.660952,81.1467873 Z" id="Path"></path>
                    <path d="M171.767534,81.1467873 C173.494144,81.1467873 174.893418,79.7484863 174.893418,78.0236475 C174.893418,76.2986889 173.494144,74.900388 171.767534,74.900388 C170.042122,74.900388 168.642848,76.2986889 168.642848,78.0236475 C168.642848,79.7484863 170.042122,81.1467873 171.767534,81.1467873 Z" id="Path"></path>
                    <path d="M199.875315,81.1467873 C201.600726,81.1467873 203,79.7484863 203,78.0236475 C203,76.2986889 201.600726,74.900388 199.875315,74.900388 C198.148704,74.900388 196.750629,76.2986889 196.750629,78.0236475 C196.750629,79.7484863 198.148704,81.1467873 199.875315,81.1467873 Z" id="Path"></path>
                    <path d="M6.25021027,103.009245 C6.25021027,104.727853 4.84482123,106.132385 3.12504519,106.132385 C1.40538904,106.132385 0,104.727853 0,103.009245 C0,101.290517 1.40538904,99.8861052 3.12504519,99.8861052 C4.84482123,99.8861052 6.25021027,101.272064 6.25021027,103.009245 Z" id="Path"></path>
                    <path d="M34.3575115,103.009245 C34.3575115,104.727853 32.9521225,106.132385 31.2324663,106.132385 C29.5126903,106.132385 28.1074211,104.727853 28.1074211,103.009245 C28.1074211,101.290517 29.5126903,99.8861052 31.2324663,99.8861052 C32.9521225,99.8861052 34.3575115,101.272064 34.3575115,103.009245 Z" id="Path"></path>
                    <path d="M62.4645729,103.009245 C62.4645729,104.727853 61.0591839,106.132385 59.3395278,106.132385 C57.6198716,106.132385 56.2144826,104.727853 56.2144826,103.009245 C56.2144826,101.290517 57.6198716,99.8861052 59.3395278,99.8861052 C61.0591839,99.8861052 62.4645729,101.272064 62.4645729,103.009245 Z" id="Path"></path>
                    <path d="M90.5716344,103.009245 C90.5716344,104.727853 89.1662453,106.132385 87.4465892,106.132385 C85.7268131,106.132385 84.321544,104.727853 84.321544,103.009245 C84.321544,101.290517 85.7268131,99.8861052 87.4465892,99.8861052 C89.1662453,99.8861052 90.5716344,101.272064 90.5716344,103.009245 Z" id="Path"></path>
                    <path d="M118.679056,103.009245 C118.679056,104.727853 117.273786,106.132385 115.553171,106.132385 C113.833755,106.132385 112.428486,104.727853 112.428486,103.009245 C112.428486,101.290517 113.833755,99.8861052 115.553171,99.8861052 C117.273786,99.8861052 118.679056,101.272064 118.679056,103.009245 Z" id="Path"></path>
                    <path d="M146.785637,103.009245 C146.785637,104.727853 145.380368,106.132385 143.660952,106.132385 C141.941536,106.132385 140.535067,104.727853 140.535067,103.009245 C140.535067,101.290517 141.941536,99.8861052 143.660952,99.8861052 C145.380368,99.8861052 146.785637,101.272064 146.785637,103.009245 Z" id="Path"></path>
                    <path d="M174.893418,103.009245 C174.893418,104.727853 173.488149,106.132385 171.767534,106.132385 C170.048117,106.132385 168.642848,104.727853 168.642848,103.009245 C168.642848,101.290517 170.048117,99.8861052 171.767534,99.8861052 C173.488149,99.8861052 174.893418,101.272064 174.893418,103.009245 Z" id="Path"></path>
                    <path d="M203,103.009245 C203,104.727853 201.594731,106.132385 199.875315,106.132385 C198.155898,106.132385 196.750629,104.727853 196.750629,103.009245 C196.750629,101.290517 198.155898,99.8861052 199.875315,99.8861052 C201.594731,99.8861052 203,101.272064 203,103.009245 Z" id="Path"></path>
                    <path d="M6.25021027,127.976029 C6.25021027,129.694397 4.84482123,131.098809 3.12504519,131.098809 C1.40538904,131.098809 0,129.694397 0,127.976029 C0,126.257661 1.40538904,124.853249 3.12504519,124.853249 C4.84482123,124.853249 6.25021027,126.238488 6.25021027,127.976029 Z" id="Path"></path>
                    <path d="M34.3575115,127.976029 C34.3575115,129.694397 32.9521225,131.098809 31.2324663,131.098809 C29.5126903,131.098809 28.1074211,129.694397 28.1074211,127.976029 C28.1074211,126.257661 29.5126903,124.853249 31.2324663,124.853249 C32.9521225,124.853249 34.3575115,126.238488 34.3575115,127.976029 Z" id="Path"></path>
                    <path d="M62.4645729,127.976029 C62.4645729,129.694397 61.0591839,131.098809 59.3395278,131.098809 C57.6198716,131.098809 56.2144826,129.694397 56.2144826,127.976029 C56.2144826,126.257661 57.6198716,124.853249 59.3395278,124.853249 C61.0591839,124.853249 62.4645729,126.238488 62.4645729,127.976029 Z" id="Path"></path>
                    <path d="M90.5716344,127.976029 C90.5716344,129.694397 89.1662453,131.098809 87.4465892,131.098809 C85.7268131,131.098809 84.321544,129.694397 84.321544,127.976029 C84.321544,126.257661 85.7268131,124.853249 87.4465892,124.853249 C89.1662453,124.853249 90.5716344,126.238488 90.5716344,127.976029 Z" id="Path"></path>
                    <path d="M118.679056,127.976029 C118.679056,129.694397 117.273786,131.098809 115.553171,131.098809 C113.833755,131.098809 112.428486,129.694397 112.428486,127.976029 C112.428486,126.257661 113.833755,124.853249 115.553171,124.853249 C117.273786,124.853249 118.679056,126.238488 118.679056,127.976029 Z" id="Path"></path>
                    <path d="M146.785637,127.976029 C146.785637,129.694397 145.380368,131.098809 143.660952,131.098809 C141.941536,131.098809 140.535067,129.694397 140.535067,127.976029 C140.535067,126.257661 141.941536,124.853249 143.660952,124.853249 C145.380368,124.853249 146.785637,126.238488 146.785637,127.976029 Z" id="Path"></path>
                    <path d="M174.893418,127.976029 C174.893418,129.694397 173.488149,131.098809 171.767534,131.098809 C170.048117,131.098809 168.642848,129.694397 168.642848,127.976029 C168.642848,126.257661 170.048117,124.853249 171.767534,124.853249 C173.488149,124.853249 174.893418,126.238488 174.893418,127.976029 Z" id="Path"></path>
                    <path d="M203,127.976029 C203,129.694397 201.594731,131.098809 199.875315,131.098809 C198.155898,131.098809 196.750629,129.694397 196.750629,127.976029 C196.750629,126.257661 198.155898,124.853249 199.875315,124.853249 C201.594731,124.853249 203,126.238488 203,127.976029 Z" id="Path"></path>
                    <path d="M6.25021027,152.942693 C6.25021027,154.661061 4.84482123,156.065473 3.12504519,156.065473 C1.40538904,156.065473 0,154.661061 0,152.942693 C0,151.224325 1.40538904,149.819913 3.12504519,149.819913 C4.84482123,149.819913 6.25021027,151.224325 6.25021027,152.942693 Z" id="Path"></path>
                    <path d="M34.3575115,152.942693 C34.3575115,154.661061 32.9521225,156.065473 31.2324663,156.065473 C29.5126903,156.065473 28.1074211,154.661061 28.1074211,152.942693 C28.1074211,151.224325 29.5126903,149.819913 31.2324663,149.819913 C32.9521225,149.819913 34.3575115,151.224325 34.3575115,152.942693 Z" id="Path"></path>
                    <path d="M62.4645729,152.942693 C62.4645729,154.661061 61.0591839,156.065473 59.3395278,156.065473 C57.6198716,156.065473 56.2144826,154.661061 56.2144826,152.942693 C56.2144826,151.224325 57.6198716,149.819913 59.3395278,149.819913 C61.0591839,149.819913 62.4645729,151.224325 62.4645729,152.942693 Z" id="Path"></path>
                    <path d="M90.5716344,152.942693 C90.5716344,154.661061 89.1662453,156.065473 87.4465892,156.065473 C85.7268131,156.065473 84.321544,154.661061 84.321544,152.942693 C84.321544,151.224325 85.7268131,149.819913 87.4465892,149.819913 C89.1662453,149.819913 90.5716344,151.224325 90.5716344,152.942693 Z" id="Path"></path>
                    <path d="M118.679056,152.942693 C118.679056,154.661061 117.273786,156.065473 115.553171,156.065473 C113.833755,156.065473 112.428486,154.661061 112.428486,152.942693 C112.428486,151.224325 113.833755,149.819913 115.553171,149.819913 C117.273786,149.819913 118.679056,151.224325 118.679056,152.942693 Z" id="Path"></path>
                    <path d="M146.785637,152.942693 C146.785637,154.661061 145.380368,156.065473 143.660952,156.065473 C141.941536,156.065473 140.535067,154.661061 140.535067,152.942693 C140.535067,151.224325 141.941536,149.819913 143.660952,149.819913 C145.380368,149.819913 146.785637,151.224325 146.785637,152.942693 Z" id="Path"></path>
                    <path d="M174.893418,152.942693 C174.893418,154.661061 173.488149,156.065473 171.767534,156.065473 C170.048117,156.065473 168.642848,154.661061 168.642848,152.942693 C168.642848,151.224325 170.048117,149.819913 171.767534,149.819913 C173.488149,149.819913 174.893418,151.224325 174.893418,152.942693 Z" id="Path"></path>
                    <path d="M203,152.942693 C203,154.661061 201.594731,156.065473 199.875315,156.065473 C198.155898,156.065473 196.750629,154.661061 196.750629,152.942693 C196.750629,151.224325 198.155898,149.819913 199.875315,149.819913 C201.594731,149.819913 203,151.224325 203,152.942693 Z" id="Path"></path>
                    <path d="M6.25021027,177.909357 C6.25021027,179.628924 4.84482123,181.033336 3.12504519,181.033336 C1.40538904,181.033336 0,179.628924 0,177.909357 C0,176.190989 1.40538904,174.786577 3.12504519,174.786577 C4.84482123,174.786577 6.25021027,176.190989 6.25021027,177.909357 Z" id="Path"></path>
                    <path d="M34.3575115,177.909357 C34.3575115,179.628924 32.9521225,181.033336 31.2324663,181.033336 C29.5126903,181.033336 28.1074211,179.628924 28.1074211,177.909357 C28.1074211,176.190989 29.5126903,174.786577 31.2324663,174.786577 C32.9521225,174.786577 34.3575115,176.190989 34.3575115,177.909357 Z" id="Path"></path>
                    <path d="M59.3395278,181.033336 C61.0654189,181.033336 62.4645729,179.634915 62.4645729,177.909357 C62.4645729,176.184998 61.0654189,174.786577 59.3395278,174.786577 C57.6136366,174.786577 56.2144826,176.184998 56.2144826,177.909357 C56.2144826,179.634915 57.6136366,181.033336 59.3395278,181.033336 Z" id="Path"></path>
                    <path d="M87.4465892,181.033336 C89.1724803,181.033336 90.5716344,179.634915 90.5716344,177.909357 C90.5716344,176.184998 89.1724803,174.786577 87.4465892,174.786577 C85.7206981,174.786577 84.321544,176.184998 84.321544,177.909357 C84.321544,179.634915 85.7206981,181.033336 87.4465892,181.033336 Z" id="Path"></path>
                    <path d="M115.553171,181.033336 C117.279782,181.033336 118.679056,179.634915 118.679056,177.909357 C118.679056,176.184998 117.279782,174.786577 115.553171,174.786577 C113.827759,174.786577 112.428486,176.184998 112.428486,177.909357 C112.428486,179.634915 113.827759,181.033336 115.553171,181.033336 Z" id="Path"></path>
                    <path d="M143.660952,181.033336 C145.386363,181.033336 146.785637,179.634915 146.785637,177.909357 C146.785637,176.184998 145.386363,174.786577 143.660952,174.786577 C141.934341,174.786577 140.535067,176.184998 140.535067,177.909357 C140.535067,179.634915 141.934341,181.033336 143.660952,181.033336 Z" id="Path"></path>
                    <path d="M171.767534,181.033336 C173.494144,181.033336 174.893418,179.634915 174.893418,177.909357 C174.893418,176.184998 173.494144,174.786577 171.767534,174.786577 C170.042122,174.786577 168.642848,176.184998 168.642848,177.909357 C168.642848,179.634915 170.042122,181.033336 171.767534,181.033336 Z" id="Path"></path>
                    <path d="M199.875315,181.033336 C201.600726,181.033336 203,179.634915 203,177.909357 C203,176.184998 201.600726,174.786577 199.875315,174.786577 C198.148704,174.786577 196.750629,176.184998 196.750629,177.909357 C196.750629,179.634915 198.148704,181.033336 199.875315,181.033336 Z" id="Path"></path>
                    <path d="M6.25021027,202.876021 C6.25021027,204.594389 4.84482123,206 3.12504519,206 C1.40538904,206 0,204.594389 0,202.876021 C0,201.157653 1.40538904,199.753241 3.12504519,199.753241 C4.84482123,199.753241 6.25021027,201.157653 6.25021027,202.876021 Z" id="Path"></path>
                    <path d="M34.3575115,202.876021 C34.3575115,204.594389 32.9521225,206 31.2324663,206 C29.5126903,206 28.1074211,204.594389 28.1074211,202.876021 C28.1074211,201.157653 29.5126903,199.753241 31.2324663,199.753241 C32.9521225,199.753241 34.3575115,201.157653 34.3575115,202.876021 Z" id="Path"></path>
                    <path d="M62.4645729,202.876021 C62.4645729,204.594389 61.0591839,206 59.3395278,206 C57.6198716,206 56.2144826,204.594389 56.2144826,202.876021 C56.2144826,201.157653 57.6198716,199.753241 59.3395278,199.753241 C61.0591839,199.753241 62.4645729,201.157653 62.4645729,202.876021 Z" id="Path"></path>
                    <path d="M90.5716344,202.876021 C90.5716344,204.594389 89.1662453,206 87.4465892,206 C85.7268131,206 84.321544,204.594389 84.321544,202.876021 C84.321544,201.157653 85.7268131,199.753241 87.4465892,199.753241 C89.1662453,199.753241 90.5716344,201.157653 90.5716344,202.876021 Z" id="Path"></path>
                    <path d="M118.679056,202.876021 C118.679056,204.594389 117.273786,206 115.55437,206 C113.833755,206 112.428486,204.594389 112.428486,202.876021 C112.428486,201.157653 113.833755,199.753241 115.55437,199.753241 C117.273786,199.753241 118.679056,201.157653 118.679056,202.876021 Z" id="Path"></path>
                    <path d="M146.785637,202.876021 C146.785637,204.594389 145.380368,206 143.660952,206 C141.941536,206 140.535067,204.594389 140.535067,202.876021 C140.535067,201.157653 141.941536,199.753241 143.660952,199.753241 C145.380368,199.753241 146.785637,201.157653 146.785637,202.876021 Z" id="Path"></path>
                    <path d="M174.893418,202.876021 C174.893418,204.594389 173.488149,206 171.767534,206 C170.048117,206 168.642848,204.594389 168.642848,202.876021 C168.642848,201.157653 170.048117,199.753241 171.767534,199.753241 C173.488149,199.753241 174.893418,201.157653 174.893418,202.876021 Z" id="Path"></path>
                    <path d="M203,202.876021 C203,204.594389 201.594731,206 199.875315,206 C198.155898,206 196.750629,204.594389 196.750629,202.876021 C196.750629,201.157653 198.155898,199.753241 199.875315,199.753241 C201.594731,199.753241 203,201.157653 203,202.876021 Z" id="Path"></path>
                </g>
            </g>
        </g>
    </g>
</svg>