<svg width="60" height="60" fill="none" xmlns="http://www.w3.org/2000/svg">
                                <path d="m31.428 15.285 3.571-7.143C30 11 27.142 6.714 27.142 6.714s-2.857 4.285-7.857 1.428l3.571 7.143h8.572ZM31.43 18.142S43.572 30.285 43.572 39.57c0 3.957-3.185 8.572-7.142 8.572H17.858c-3.957 0-7.143-4.615-7.143-8.572 0-9.285 12.143-21.428 12.143-21.428h8.572Z" fill="#FFD032"></path>
                                <path d="M22.144 15.285h10a1.429 1.429 0 0 1 0 2.857h-10a1.428 1.428 0 1 1 0-2.857Z" fill="#C58B59"></path>
                                <path d="m29.37 15.285-.007.007c-.028 0-.05-.007-.078-.007h.085ZM29.563 18.142h-.278a.957.957 0 0 0 .25-.029l.028.029Z" fill="#FCB860"></path>
                                <path d="M44.286 39.57c0 4.294-3.432 9.286-7.857 9.286H17.857c-4.425 0-7.857-4.992-7.857-9.286 0-7.963 8.37-17.679 11.339-20.874a2.14 2.14 0 0 1 .384-4.083L18.647 8.46a.714.714 0 0 1 .993-.94c4.343 2.483 6.808-1.054 6.91-1.206A.717.717 0 0 1 27.142 6h.003a.715.715 0 0 1 .592.317c.102.15 2.567 3.686 6.909 1.205a.714.714 0 0 1 .993.94l-3.076 6.15a2.14 2.14 0 0 1 .384 4.084c2.968 3.195 11.339 12.911 11.339 20.874ZM20.799 9.571l2.5 5h7.688l2.5-5a6.206 6.206 0 0 1-6.344-1.76 6.206 6.206 0 0 1-6.344 1.76Zm.63 7.142a.715.715 0 0 0 .714.714h10a.714.714 0 1 0 0-1.428h-10a.715.715 0 0 0-.714.714ZM42.857 39.57c0-8.243-10.172-19.101-11.73-20.714h-7.969c-1.557 1.613-11.73 12.47-11.73 20.714 0 3.559 2.868 7.857 6.43 7.857h18.57c3.562 0 6.43-4.298 6.43-7.857Z" fill="#1B325E"></path>
                                <path d="M49.285 38.857c0 7.495-6.076 13.572-13.571 13.572-7.496 0-13.572-6.077-13.572-13.572 0-7.495 6.076-13.571 13.572-13.571 7.495 0 13.571 6.076 13.571 13.571Z" fill="#FFF2DB" stroke="#1B325E" stroke-width="1.429"></path>
                                <path d="M39.663 34.064c0 2.092-1.76 3.788-3.929 3.788-2.17 0-3.928-1.696-3.928-3.788 0-2.093 1.758-3.789 3.928-3.789s3.929 1.696 3.929 3.789Z" fill="#FFD032"></path>
                                <path d="M35.752 37.865v9.294m-3.161 0h2.078m2.335 0h2.078" stroke="#1B325E" stroke-width=".828" stroke-linecap="round" stroke-linejoin="round"></path>
                                <path fill-rule="evenodd" clip-rule="evenodd" d="M30.703 43.355c-1.729-.925-2.132-4.259-2.132-4.259 1.361-.16 3.396.952 3.396.952.857.539 1.13 1.147 1.16 1.666.054.884-.626 1.686-1.536 1.807l-.026.004c-.297.035-.6-.03-.862-.17Z" fill="#84EB9C"></path>
                                <path d="M35.676 46.127s-2.183-2.8-4.15-4.25m-.823 1.478c-1.729-.925-2.132-4.259-2.132-4.259 1.361-.16 3.396.952 3.396.952.857.539 1.13 1.147 1.16 1.666.024.396-.099.775-.323 1.084m2.872-13.967v1.457m-3.804.083 1.06 1.038m-2.65 2.657 1.511.016m.123 3.743 1.067-1.033m6.668-6.343-1.1.999m2.61 2.633-1.51-.014m-.162 3.794-1.037-1.06m-3.928-4.514h2.42m-2.42 1.126h2.42m2.719.65c0 2.093-1.76 3.789-3.929 3.789-2.17 0-3.928-1.696-3.928-3.788 0-2.093 1.758-3.789 3.928-3.789s3.929 1.696 3.929 3.789Z" stroke="#1B325E" stroke-width=".828" stroke-linecap="round" stroke-linejoin="round"></path>
                                <path d="M35.24 32.287c.566 0 1.025.54 1.025 1.204 0 .666-.459 1.013-1.025 1.013h-.716l1.764 1.686" stroke="#1B325E" stroke-width=".828" stroke-linecap="round" stroke-linejoin="round"></path>
                                <path fill-rule="evenodd" clip-rule="evenodd" d="M40.724 42.346c1.729-.926 2.132-4.26 2.132-4.26-1.361-.16-3.396.952-3.396.952-.857.54-1.13 1.147-1.16 1.667-.053.884.626 1.685 1.536 1.806l.026.004c.297.035.6-.03.862-.17Z" fill="#84EB9C"></path>
                                <path d="M35.752 45.117s2.183-2.8 4.15-4.25m.823 1.478c1.729-.925 2.132-4.259 2.132-4.259-1.361-.16-3.396.952-3.396.952-.857.539-1.13 1.147-1.16 1.666-.024.396.1.775.324 1.084" stroke="#1B325E" stroke-width=".828" stroke-linecap="round" stroke-linejoin="round"></path>
                            </svg>