<svg width="60px" height="60px" viewBox="0 0 60 60" version="1.1" xmlns="http://www.w3.org/2000/svg" xmlns:xlink="http://www.w3.org/1999/xlink">
                                <title>Artboard</title>
                                <g id="Artboard" stroke="none" stroke-width="1" fill="none" fill-rule="evenodd">
                                    <g id="stepup-credit-card" transform="translate(9.000000, 14.000000)">
                                        <g id="Icon">
                                            <path d="M37.0881653,24.3193949 L1.95086337,24.3193949 C0.873977379,24.3193949 0,23.4507887 0,22.3784931 L0,9.81179743 L39.0384405,9.81179743 L39.0384405,22.3784931 C39.0384405,23.4507887 38.1650512,24.3193949 37.0881653,24.3193949" id="Fill-1" fill="#8770F7" fill-rule="nonzero"></path>
                                            <polygon id="Fill-3" fill="#FFFFFF" fill-rule="nonzero" points="0.000411698629 9.81197299 39.0388522 9.81197299 39.0388522 5.47186825 0.000411698629 5.47186825"></polygon>
                                            <path d="M39.0386758,5.4715756 L0.000235256795,5.4715756 L0.000235256795,1.9415457 C0.000235256795,0.869835416 0.873624499,5.85311909e-05 1.95051049,5.85311909e-05 L37.0884005,5.85311909e-05 C38.1652866,5.85311909e-05 39.0386758,0.869835416 39.0386758,1.9415457 L39.0386758,5.4715756 Z" id="Fill-5" fill="#8770F7" fill-rule="nonzero"></path>
                                            <path d="M20.8610539,24.3193364 C16.6581881,24.3193364 10.3538895,24.3193364 1.94815792,24.3193364 C0.871860071,24.3193364 0.000235256795,23.4519008 0.000235256795,22.3819465 L0.000235256795,5.47163413 L34.0847649,5.47163413" id="Stroke-6" stroke="#1B325E" stroke-width="1.33" stroke-linecap="round" stroke-linejoin="round"></path>
                                            <path d="M0.000294070736,1.9385606 C0.000294070736,0.868020947 0.871918891,0 1.94821674,0 L37.0914001,0 C38.1671098,0 39.0387346,0.868020947 39.0387346,1.9385606 L39.0387346,9.81162177 L4.83834113,9.81162177" id="Stroke-7" stroke="#1B325E" stroke-width="1.33" stroke-linecap="round" stroke-linejoin="round"></path>
                                            <line x1="4.82428457" y1="19.4248221" x2="10.8162013" y2="19.4248221" id="Stroke-8" stroke="#1B325E" stroke-width="1.33" stroke-linecap="round" stroke-linejoin="round"></line>
                                            <line x1="16.2625664" y1="19.4248221" x2="21.4463973" y2="19.4248221" id="Stroke-9" stroke="#1B325E" stroke-width="1.33" stroke-linecap="round" stroke-linejoin="round"></line>
                                        </g>
                                        <g id="Icon" transform="translate(24.181818, 14.080000)">
                                            <path d="M16.2100909,15.994768 L1.60809091,15.994768 C0.720151515,15.994768 0,15.2708012 0,14.3774907 L0,1.6172773 C0,0.72426546 0.720151515,0 1.60809091,0 L16.2100909,0 C17.0980303,0 17.8181818,0.72426546 17.8181818,1.6172773 L17.8181818,14.3774907 C17.8181818,15.2708012 17.0980303,15.994768 16.2100909,15.994768" id="Fill-2" fill="#CED8E2"></path>
                                            <path d="M16.2100909,15.994768 L1.60809091,15.994768 C0.720151515,15.994768 0,15.2708012 0,14.3774907 L0,1.6172773 C0,0.72426546 0.720151515,0 1.60809091,0 L16.2100909,0 C17.0980303,0 17.8181818,0.72426546 17.8181818,1.6172773 L17.8181818,14.3774907 C17.8181818,15.2708012 17.0980303,15.994768 16.2100909,15.994768 Z" id="Stroke-4" stroke="#1B325E" stroke-width="1.33" stroke-linecap="round" stroke-linejoin="round"></path>
                                            <path d="M6.24244269,12.3893294 C5.56644269,12.3893294 5.01818182,11.8084059 5.01818182,11.0915981 L5.01818182,4.68706062 C5.01818182,3.97049248 5.56644269,3.38932935 6.24244269,3.38932935 L13.1939209,3.38932935 C13.8699209,3.38932935 14.4181818,3.97049248 14.4181818,4.68706062 L14.4181818,11.0915981 C14.4181818,11.8084059 13.8699209,12.3893294 13.1939209,12.3893294 L6.24244269,12.3893294 Z" id="Fill-6" fill="#9AAFC3"></path>
                                            <path d="M14.4030303,8.22002163 L14.4030303,10.8731749 C14.4030303,11.7590187 13.6828788,12.4770122 12.7949394,12.4770122 L6.32021212,12.4770122 C5.43227273,12.4770122 4.71212121,11.7590187 4.71212121,10.8731749 L4.71212121,8.58339745" id="Stroke-8" stroke="#1B325E" stroke-width="1.2" stroke-linecap="round" stroke-linejoin="round"></path>
                                            <path d="M4.71212121,7.54208669 L4.71212121,5.121623 C4.71212121,4.23577914 5.43227273,3.51778567 6.32021212,3.51778567 L12.7949394,3.51778567 C13.6828788,3.51778567 14.4030303,4.23577914 14.4030303,5.121623" id="Stroke-10" stroke="#1B325E" stroke-width="1.2" stroke-linecap="round" stroke-linejoin="round"></path>
                                            <path d="M3.79636364,5.72 C4.04991254,5.72 4.279458,5.822771 4.44561623,5.98892923 C4.61177445,6.15508746 4.71454545,6.38463291 4.71454545,6.63818182 L4.71454545,6.63818182 L4.71454545,9.77302576 C4.71454545,10.0265747 4.61177445,10.2561201 4.44561623,10.4222784 C4.279458,10.5884366 4.04991254,10.6912076 3.79636364,10.6912076 C3.54281473,10.6912076 3.31326927,10.5884366 3.14711105,10.4222784 C2.98095282,10.2561201 2.87818182,10.0265747 2.87818182,9.77302576 L2.87818182,9.77302576 L2.87818182,6.63818182 C2.87818182,6.38463291 2.98095282,6.15508746 3.14711105,5.98892923 C3.31326927,5.822771 3.54281473,5.72 3.79636364,5.72 Z" id="Fill-12" stroke="#1B325E" stroke-width="1.2" fill="#FFFFFF"></path>
                                            <line x1="4.00909091" y1="16.1429363" x2="4.00909091" y2="17.92" id="Stroke-15" stroke="#1B325E" stroke-width="1.33" stroke-linecap="round" stroke-linejoin="round"></line>
                                            <line x1="14.1060606" y1="16.1429363" x2="14.1060606" y2="17.92" id="Stroke-16" stroke="#1B325E" stroke-width="1.33" stroke-linecap="round" stroke-linejoin="round"></line>
                                            <g id="Group-14" transform="translate(7.636364, 6.144000)" stroke="#1B325E" stroke-linecap="round" stroke-linejoin="round" stroke-width="0.954545455">
                                                <path d="M2.98181818,1.976 C2.98181818,2.52828586 2.53414255,2.976 1.98171395,2.976 C1.42938958,2.976 0.981818182,2.52828586 0.981818182,1.976 C0.981818182,1.42371414 1.42938958,0.976 1.98171395,0.976 C2.53414255,0.976 2.98181818,1.42371414 2.98181818,1.976 Z" id="Stroke-18" fill="#FFFFFF"></path>
                                                <line x1="1.95127411" y1="0" x2="1.95127411" y2="0.640080716" id="Stroke-19"></line>
                                                <line x1="3.25421455" y1="0.557548241" x2="2.8058002" y2="1.01171228" id="Stroke-20"></line>
                                                <line x1="3.81818182" y1="1.94802239" x2="3.18177838" y2="1.95551873" id="Stroke-21"></line>
                                                <line x1="3.27339819" y1="3.26333544" x2="2.81848316" y2="2.81549418" id="Stroke-22"></line>
                                                <line x1="1.98119105" y1="3.84" x2="1.96662314" y2="3.20005381" id="Stroke-23"></line>
                                                <line x1="0.583004983" y1="3.30170261" x2="1.02491865" y2="2.84121579" id="Stroke-24"></line>
                                                <line x1="0" y1="2.00828088" x2="0.636403436" y2="1.98601233" id="Stroke-25"></line>
                                                <line x1="0.525732653" y1="0.596507336" x2="0.986883028" y2="1.03775676" id="Stroke-26"></line>
                                            </g>
                                        </g>
                                    </g>
                                </g>
                            </svg>